<svg xmlns="http://www.w3.org/2000/svg" xmlns:xlink="http://www.w3.org/1999/xlink" width="300" zoomAndPan="magnify" viewBox="0 0 224.87999 225" height="300" preserveAspectRatio="xMidYMid meet" version="1.0"><defs><clipPath id="66f5b7d59a"><path d="M 0 0.0585938 L 224.761719 0.0585938 L 224.761719 198 L 0 198 Z M 0 0.0585938 " clip-rule="nonzero"/></clipPath><clipPath id="37069612bd"><path d="M 0 12 L 224.761719 12 L 224.761719 198 L 0 198 Z M 0 12 " clip-rule="nonzero"/></clipPath><clipPath id="6cf13bd958"><path d="M 0 172 L 224.761719 172 L 224.761719 224.9375 L 0 224.9375 Z M 0 172 " clip-rule="nonzero"/></clipPath></defs><g clip-path="url(#66f5b7d59a)"><path fill="#e67777" d="M 0 197.179688 L 0 0.535156 L 224.878906 197.179688 Z M 0 197.179688 " fill-opacity="1" fill-rule="nonzero"/></g><g clip-path="url(#37069612bd)"><path fill="#ff5733" d="M 0 197.179688 L 224.878906 12.257812 L 224.878906 197.179688 " fill-opacity="1" fill-rule="nonzero"/></g><path fill="#d52941" d="M 4.113281 191.300781 L 115.90625 101.871094 L 221.5 191.929688 Z M 4.113281 191.300781 " fill-opacity="1" fill-rule="nonzero"/><g clip-path="url(#6cf13bd958)"><path fill="#800080" d="M 224.878906 198.300781 C 224.878906 198.730469 224.835938 199.160156 224.746094 199.589844 C 224.652344 200.019531 224.519531 200.445312 224.339844 200.871094 C 224.15625 201.300781 223.933594 201.726562 223.664062 202.152344 C 223.394531 202.574219 223.078125 203 222.71875 203.417969 C 222.359375 203.839844 221.957031 204.257812 221.511719 204.675781 C 221.0625 205.089844 220.574219 205.503906 220.039062 205.914062 C 219.503906 206.328125 218.925781 206.734375 218.308594 207.136719 C 217.6875 207.542969 217.023438 207.941406 216.320312 208.339844 C 215.617188 208.734375 214.871094 209.128906 214.085938 209.515625 C 213.296875 209.902344 212.472656 210.289062 211.605469 210.667969 C 210.734375 211.042969 209.828125 211.417969 208.882812 211.785156 C 207.9375 212.15625 206.953125 212.515625 205.929688 212.875 C 204.910156 213.230469 203.847656 213.582031 202.753906 213.925781 C 201.65625 214.269531 200.523438 214.609375 199.359375 214.941406 C 198.191406 215.273438 196.988281 215.597656 195.753906 215.917969 C 194.519531 216.234375 193.25 216.542969 191.949219 216.847656 C 190.648438 217.152344 189.316406 217.449219 187.949219 217.734375 C 186.585938 218.023438 185.195312 218.304688 183.773438 218.578125 C 182.351562 218.847656 180.898438 219.113281 179.421875 219.367188 C 177.945312 219.625 176.441406 219.871094 174.910156 220.109375 C 173.378906 220.347656 171.824219 220.578125 170.246094 220.800781 C 168.667969 221.019531 167.066406 221.230469 165.445312 221.433594 C 163.824219 221.636719 162.179688 221.828125 160.515625 222.011719 C 158.851562 222.195312 157.171875 222.371094 155.472656 222.535156 C 153.769531 222.699219 152.054688 222.851562 150.320312 222.996094 C 148.589844 223.140625 146.84375 223.277344 145.082031 223.402344 C 143.320312 223.527344 141.546875 223.640625 139.761719 223.746094 C 137.976562 223.847656 136.183594 223.941406 134.378906 224.027344 C 132.574219 224.109375 130.761719 224.183594 128.941406 224.246094 C 127.121094 224.308594 125.296875 224.363281 123.464844 224.402344 C 121.632812 224.445312 119.796875 224.476562 117.960938 224.5 C 116.121094 224.519531 114.285156 224.53125 112.441406 224.53125 C 110.601562 224.53125 108.765625 224.519531 106.925781 224.5 C 105.089844 224.476562 103.253906 224.445312 101.421875 224.40625 C 99.589844 224.363281 97.765625 224.308594 95.945312 224.246094 C 94.125 224.183594 92.3125 224.109375 90.507812 224.027344 C 88.703125 223.941406 86.910156 223.847656 85.125 223.746094 C 83.339844 223.640625 81.566406 223.527344 79.804688 223.402344 C 78.042969 223.277344 76.296875 223.140625 74.566406 222.996094 C 72.832031 222.851562 71.117188 222.699219 69.414062 222.535156 C 67.714844 222.371094 66.035156 222.195312 64.371094 222.011719 C 62.707031 221.828125 61.0625 221.636719 59.441406 221.433594 C 57.816406 221.230469 56.21875 221.019531 54.640625 220.800781 C 53.0625 220.578125 51.507812 220.347656 49.976562 220.109375 C 48.445312 219.871094 46.941406 219.625 45.464844 219.367188 C 43.988281 219.113281 42.535156 218.847656 41.113281 218.578125 C 39.691406 218.304688 38.300781 218.023438 36.933594 217.734375 C 35.570312 217.449219 34.238281 217.152344 32.9375 216.847656 C 31.636719 216.542969 30.367188 216.234375 29.132812 215.917969 C 27.898438 215.597656 26.695312 215.273438 25.527344 214.941406 C 24.359375 214.609375 23.230469 214.269531 22.132812 213.925781 C 21.039062 213.582031 19.976562 213.230469 18.957031 212.875 C 17.933594 212.515625 16.949219 212.15625 16.003906 211.785156 C 15.058594 211.417969 14.152344 211.042969 13.28125 210.667969 C 12.414062 210.289062 11.589844 209.90625 10.800781 209.515625 C 10.015625 209.128906 9.269531 208.734375 8.566406 208.339844 C 7.859375 207.941406 7.199219 207.542969 6.578125 207.136719 C 5.960938 206.734375 5.382812 206.328125 4.847656 205.914062 C 4.3125 205.503906 3.824219 205.089844 3.375 204.675781 C 2.929688 204.257812 2.527344 203.839844 2.167969 203.417969 C 1.808594 203 1.492188 202.574219 1.222656 202.152344 C 0.953125 201.726562 0.726562 201.300781 0.546875 200.871094 C 0.367188 200.445312 0.230469 200.019531 0.140625 199.589844 C 0.0507812 199.160156 0.0078125 198.730469 0.0078125 198.300781 C 0.0078125 197.871094 0.0507812 197.445312 0.140625 197.015625 C 0.230469 196.585938 0.367188 196.160156 0.546875 195.730469 C 0.726562 195.304688 0.953125 194.878906 1.222656 194.453125 C 1.492188 194.027344 1.808594 193.605469 2.167969 193.183594 C 2.527344 192.765625 2.929688 192.34375 3.375 191.929688 C 3.824219 191.511719 4.3125 191.097656 4.847656 190.6875 C 5.382812 190.277344 5.960938 189.871094 6.578125 189.464844 C 7.199219 189.0625 7.859375 188.660156 8.566406 188.265625 C 9.269531 187.867188 10.015625 187.476562 10.800781 187.089844 C 11.589844 186.699219 12.414062 186.316406 13.28125 185.9375 C 14.152344 185.558594 15.058594 185.1875 16.003906 184.816406 C 16.949219 184.449219 17.933594 184.085938 18.957031 183.730469 C 19.976562 183.375 21.039062 183.023438 22.132812 182.675781 C 23.230469 182.332031 24.359375 181.996094 25.527344 181.664062 C 26.695312 181.332031 27.898438 181.007812 29.132812 180.6875 C 30.367188 180.371094 31.636719 180.058594 32.9375 179.753906 C 34.238281 179.453125 35.570312 179.15625 36.933594 178.867188 C 38.300781 178.578125 39.691406 178.300781 41.113281 178.027344 C 42.535156 177.753906 43.988281 177.492188 45.464844 177.234375 C 46.941406 176.980469 48.445312 176.730469 49.976562 176.492188 C 51.507812 176.253906 53.0625 176.027344 54.640625 175.804688 C 56.21875 175.585938 57.816406 175.371094 59.441406 175.171875 C 61.0625 174.96875 62.707031 174.773438 64.371094 174.59375 C 66.035156 174.410156 67.714844 174.234375 69.414062 174.070312 C 71.117188 173.90625 72.832031 173.75 74.566406 173.605469 C 76.296875 173.460938 78.042969 173.328125 79.804688 173.203125 C 81.566406 173.078125 83.339844 172.964844 85.125 172.859375 C 86.910156 172.753906 88.703125 172.660156 90.507812 172.578125 C 92.3125 172.492188 94.125 172.421875 95.945312 172.359375 C 97.765625 172.292969 99.589844 172.242188 101.421875 172.199219 C 103.253906 172.15625 105.089844 172.125 106.925781 172.105469 C 108.765625 172.085938 110.601562 172.074219 112.441406 172.074219 C 114.285156 172.074219 116.121094 172.085938 117.960938 172.105469 C 119.796875 172.125 121.632812 172.15625 123.464844 172.199219 C 125.296875 172.242188 127.121094 172.292969 128.941406 172.359375 C 130.761719 172.421875 132.574219 172.492188 134.378906 172.578125 C 136.183594 172.660156 137.976562 172.753906 139.761719 172.859375 C 141.546875 172.964844 143.320312 173.078125 145.082031 173.203125 C 146.84375 173.328125 148.589844 173.460938 150.320312 173.605469 C 152.054688 173.75 153.769531 173.90625 155.472656 174.070312 C 157.171875 174.234375 158.851562 174.410156 160.515625 174.59375 C 162.179688 174.773438 163.824219 174.96875 165.445312 175.171875 C 167.070312 175.371094 168.667969 175.585938 170.246094 175.804688 C 171.824219 176.027344 173.378906 176.253906 174.910156 176.492188 C 176.441406 176.730469 177.945312 176.980469 179.421875 177.234375 C 180.898438 177.492188 182.351562 177.753906 183.773438 178.027344 C 185.195312 178.300781 186.585938 178.578125 187.949219 178.867188 C 189.316406 179.15625 190.648438 179.453125 191.949219 179.753906 C 193.25 180.058594 194.519531 180.371094 195.753906 180.6875 C 196.988281 181.007812 198.191406 181.332031 199.359375 181.664062 C 200.523438 181.996094 201.65625 182.332031 202.753906 182.679688 C 203.847656 183.023438 204.910156 183.375 205.929688 183.730469 C 206.953125 184.085938 207.9375 184.449219 208.882812 184.816406 C 209.828125 185.1875 210.734375 185.558594 211.605469 185.9375 C 212.472656 186.316406 213.296875 186.699219 214.085938 187.089844 C 214.871094 187.476562 215.617188 187.867188 216.320312 188.265625 C 217.023438 188.660156 217.6875 189.0625 218.308594 189.464844 C 218.925781 189.871094 219.503906 190.277344 220.039062 190.6875 C 220.574219 191.097656 221.0625 191.511719 221.511719 191.929688 C 221.957031 192.34375 222.359375 192.765625 222.71875 193.183594 C 223.078125 193.605469 223.394531 194.027344 223.664062 194.453125 C 223.933594 194.878906 224.15625 195.304688 224.339844 195.730469 C 224.519531 196.160156 224.652344 196.585938 224.746094 197.015625 C 224.835938 197.445312 224.878906 197.871094 224.878906 198.300781 Z M 224.878906 198.300781 " fill-opacity="1" fill-rule="nonzero"/></g></svg>